<?xml version="1.0" standalone="no"?>
<!DOCTYPE svg PUBLIC "-//W3C//DTD SVG 20010904//EN"
 "http://www.w3.org/TR/2001/REC-SVG-20010904/DTD/svg10.dtd">
<svg version="1.0" xmlns="http://www.w3.org/2000/svg"
 width="128.000000pt" height="128.000000pt" viewBox="0 0 128.000000 128.000000"
 preserveAspectRatio="xMidYMid meet">
<metadata>
Created by potrace 1.11, written by Peter Selinger 2001-2013
</metadata>
<g transform="translate(0.000000,128.000000) scale(0.100000,-0.100000)"
fill="#000000" stroke="none">
<path d="M551 1095 c-107 -30 -204 -101 -267 -195 -39 -59 -52 -91 -68 -164
-46 -222 62 -438 267 -531 66 -31 81 -34 167 -41 139 -10 278 46 377 152 49
53 121 179 109 191 -3 3 -1 15 5 26 15 27 14 155 -1 219 -34 142 -139 264
-280 323 -81 35 -223 44 -309 20z"/>
</g>
</svg>
